<?xml version="1.0" standalone="no"?>
<!DOCTYPE svg PUBLIC "-//W3C//DTD SVG 20010904//EN"
 "http://www.w3.org/TR/2001/REC-SVG-20010904/DTD/svg10.dtd">
<svg version="1.0" xmlns="http://www.w3.org/2000/svg"
 width="448.000000pt" height="214.000000pt" viewBox="0 0 448.000000 214.000000"
 preserveAspectRatio="xMidYMid meet">

<g transform="translate(0.000000,214.000000) scale(0.100000,-0.100000)"
fill="#000000" stroke="none">
<path d="M358 2019 c247 -467 652 -1242 650 -1245 -2 -1 -117 98 -257 222
-139 123 -255 224 -258 224 -8 0 -483 -384 -483 -391 0 -8 1391 -821 1397
-816 2 3 -82 168 -187 368 -105 200 -192 367 -193 370 -1 4 151 129 338 279
187 149 341 275 342 278 2 6 -1370 811 -1398 821 -6 2 16 -48 49 -110z"/>
<path d="M3855 1622 c-175 -53 -287 -163 -341 -338 -24 -77 -26 -94 -22 -216
4 -113 9 -143 31 -202 58 -148 159 -248 304 -298 131 -45 325 -25 443 44 86
51 157 140 189 236 36 106 40 102 -99 102 l-119 0 -12 -40 c-28 -94 -121 -160
-225 -160 -151 0 -251 110 -269 296 -17 169 53 321 169 369 55 23 155 21 204
-4 48 -24 102 -85 117 -132 l12 -34 123 -3 122 -3 -7 37 c-29 155 -131 277
-283 335 -80 31 -252 36 -337 11z"/>
<path d="M2110 1090 l0 -540 120 0 120 0 0 540 0 540 -120 0 -120 0 0 -540z"/>
<path d="M2550 1091 l0 -541 120 0 120 0 0 180 0 180 93 0 92 0 93 -180 94
-180 129 0 c79 0 129 4 129 10 0 6 -47 99 -104 207 l-104 197 37 27 c91 66
141 164 141 278 0 149 -61 248 -194 316 l-78 40 -284 3 -284 3 0 -540z m510
317 c55 -29 84 -75 84 -138 0 -58 -27 -107 -74 -135 -29 -16 -57 -21 -157 -24
l-123 -3 0 161 0 161 113 0 c97 0 119 -3 157 -22z"/>
</g>
</svg>
